<svg width="64" height="64" version="1.1" viewBox="0 0 16.933 16.933" xmlns="http://www.w3.org/2000/svg">
 <path transform="scale(.26458)" d="m32 9.5527a22.447 22.447 0 0 0-22.447 22.447 22.447 22.447 0 0 0 2.9883 11.186l-0.007813-0.007813-3.0332 11.322 11.322-3.0332-0.007813-0.007813a22.447 22.447 0 0 0 11.186 2.9883 22.447 22.447 0 0 0 22.447-22.447 22.447 22.447 0 0 0-22.447-22.447z" style="fill:#6478ff"/>
 <g style="fill:#ffffff;font-variant-ligatures:none;stroke-width:.26458" aria-label="Not">
  <path d="m7.8507 6.966-0.59267 2.9633h-0.69003l-0.9779-1.6256-0.32597 1.6256h-0.82127l0.59267-2.9633h0.69003l0.98213 1.6214 0.32173-1.6214z"/>
  <path d="m9.0911 9.9674q-0.36407 0-0.635-0.127-0.27093-0.13123-0.4191-0.3683t-0.14817-0.55033q0-0.37677 0.18203-0.67733 0.18203-0.30057 0.50377-0.47413 0.32173-0.17357 0.7239-0.17357 0.36407 0 0.635 0.13123 0.27093 0.127 0.4191 0.36407 0.14817 0.23283 0.14817 0.5461 0 0.37677-0.18203 0.68157-0.18203 0.30057-0.50377 0.47413-0.3175 0.17357-0.7239 0.17357zm0.046567-0.6477q0.2413 0 0.3937-0.1778t0.1524-0.46143q0-0.2032-0.1143-0.32173t-0.3175-0.11853q-0.2413 0-0.3937 0.1778t-0.1524 0.46567q0 0.2032 0.1143 0.32173 0.1143 0.1143 0.3175 0.1143z"/>
  <path d="m11.699 9.0741q-0.0085 0.059267-0.0085 0.0762 0 0.19473 0.21167 0.19473 0.1143 0 0.2413-0.067733l0.1016 0.55457q-0.23707 0.13547-0.5969 0.13547-0.3556 0-0.56727-0.1778-0.20743-0.1778-0.20743-0.4953 0-0.12277 0.02117-0.2159l0.1524-0.75777h-0.33864l0.12277-0.60113h0.33443l0.11853-0.5969h0.80433l-0.11853 0.5969h0.5207l-0.11853 0.60113h-0.5207z"/>
 </g>
</svg>
